# xmcd
#
# Track frame offsets: 
#        150
#        25315
#        49170
#        69795
#        101984
#        121880
#        141941
#        164518
#        185339
#        209405
#        232689
#        260001
#
# Disc length: 3703 seconds
#
# Revision: 0
# Processed by: cddbd v1.5.2PL0 Copyright (c) Steve Scherf et al.
# Submitted via: ExactAudioCopy v1.0b3
#
DISCID=a90e750c
DTITLE=Various Artist - Ngoai O Buon
DYEAR=1900
DGENRE=
TTITLE0=Huong Lan - Ngoai o buon
TTITLE1=Thanh Tuyen - Rung la thap
TTITLE2=Phuong Dung - Noi buon gac tro
TTITLE3=Bang Chau - Nhung doi hoa sim
TTITLE4=Thanh Tuyen - Chieu hanh quan
TTITLE5=Huong Lan - Thanh pho sau lung
TTITLE6=Bang Chau - Nhung dom mat hoa chau
TTITLE7=Thanh Tuyen - Con duong mang ten em
TTITLE8=Phuong Dung - Trang tan tren he pho
TTITLE9=Bang Chau - Chieu thuong do thi
TTITLE10=Huong Lan - Mua dem ngoai o
TTITLE11=Phuong Dung - Phut dau tien
EXTD=
EXTT0=
EXTT1=
EXTT2=
EXTT3=
EXTT4=
EXTT5=
EXTT6=
EXTT7=
EXTT8=
EXTT9=
EXTT10=
EXTT11=
PLAYORDER=
